<svg xmlns="http://www.w3.org/2000/svg">

    <!--  CSS -->
    <symbol id="select2__arrow--symbol" viewBox="0 0 11 6">
        <path fill="white"
              d="M10.6236 1.12001C10.624 0.946246 10.5631 0.777845 10.4515 0.644043C10.3887 0.568737 10.3116 0.506487 10.2245 0.460859C10.1374 0.415232 10.0421 0.387122 9.94413 0.378141C9.84612 0.369161 9.74728 0.379485 9.65329 0.408522C9.5593 0.43756 9.47199 0.48474 9.39637 0.547361L5.38526 3.87916L1.36668 0.666354C1.29013 0.604578 1.20205 0.558444 1.10751 0.530606C1.01296 0.502768 0.913813 0.493774 0.81576 0.50414C0.717706 0.514507 0.62268 0.54403 0.536144 0.591013C0.449609 0.637995 0.373269 0.701511 0.311514 0.77791C0.243388 0.854858 0.192001 0.94497 0.160579 1.04259C0.129157 1.14021 0.118378 1.24323 0.128919 1.34519C0.139459 1.44715 0.171091 1.54584 0.22183 1.63507C0.272569 1.7243 0.341319 1.80215 0.423766 1.86372L4.91381 5.45582C5.04771 5.5652 5.21567 5.625 5.38901 5.625C5.56234 5.625 5.7303 5.5652 5.8642 5.45582L10.3542 1.73729C10.4448 1.66268 10.5164 1.56791 10.5632 1.46066C10.61 1.35341 10.6307 1.23671 10.6236 1.12001Z"></path>
    </symbol>
    <view id="select2__arrow" viewBox="0 0 11 6" xmlns="http://www.w3.org/2000/svg"/>
    <use xlink:href="#select2__arrow--symbol" width="11" height="6" x="0" y="0" xmlns="http://www.w3.org/2000/svg"
         xmlns:xlink="http://www.w3.org/1999/xlink"/>

    <symbol id="search__map--symbol" fill="none" xmlns="http://www.w3.org/2000/svg" viewBox="0 0 18 22">
        <path d="M9 0C11.3869 0 13.6761 0.993372 15.364 2.76159C17.0518 4.5298 18 6.92801 18 9.42865C18 13.934 15.0975 18.081 9.402 21.8776C9.28181 21.9575 9.14237 22 9 22C8.85763 22 8.71819 21.9575 8.598 21.8776C2.9025 18.081 0 13.934 0 9.42865C0 6.92801 0.948211 4.5298 2.63604 2.76159C4.32387 0.993372 6.61305 0 9 0ZM9 6.28576C8.20435 6.28576 7.44129 6.61689 6.87868 7.20629C6.31607 7.7957 6 8.5951 6 9.42865C6 10.2622 6.31607 11.0616 6.87868 11.651C7.44129 12.2404 8.20435 12.5715 9 12.5715C9.79565 12.5715 10.5587 12.2404 11.1213 11.651C11.6839 11.0616 12 10.2622 12 9.42865C12 8.5951 11.6839 7.7957 11.1213 7.20629C10.5587 6.61689 9.79565 6.28576 9 6.28576Z"
              fill="#F59E0B"></path>
    </symbol>
    <view id="search__map" viewBox="0 51 18 22" xmlns="http://www.w3.org/2000/svg"></view>
    <use xlink:href="#search__map--symbol" width="18" height="22" x="0" y="51" xmlns="http://www.w3.org/2000/svg"
         xmlns:xlink="http://www.w3.org/1999/xlink"/>

    <symbol id="search__arrow--symbol" xmlns="http://www.w3.org/2000/svg" viewBox="0 0 7 14">
        <path d="M0.993352 0.00180435C0.761661 0.00134945 0.537126 0.0825443 0.358724 0.231296C0.258315 0.315059 0.175316 0.417933 0.114479 0.534022C0.0536416 0.650112 0.0161625 0.777137 0.00418798 0.907824C-0.00778654 1.03851 0.00597897 1.17029 0.0446958 1.29562C0.0834126 1.42094 0.146319 1.53735 0.229814 1.63818L4.67221 6.98632L0.388472 12.3444C0.306104 12.4465 0.244592 12.5639 0.207475 12.69C0.170357 12.8161 0.158365 12.9482 0.172187 13.079C0.186009 13.2097 0.225373 13.3364 0.288017 13.4518C0.35066 13.5672 0.435349 13.669 0.537213 13.7513C0.639811 13.8421 0.75996 13.9107 0.89012 13.9526C1.02028 13.9945 1.15764 14.0088 1.29359 13.9948C1.42953 13.9807 1.56112 13.9385 1.68009 13.8709C1.79907 13.8032 1.90286 13.7116 1.98496 13.6016L6.77442 7.61492C6.92027 7.43638 7 7.21244 7 6.98133C7 6.75021 6.92027 6.52627 6.77442 6.34773L1.81639 0.361009C1.71691 0.240259 1.59055 0.144807 1.44755 0.0823965C1.30455 0.0199862 1.14894 -0.00762463 0.993352 0.00180435Z"></path>
    </symbol>
    <view id="search__arrow" viewBox="0 101 7 14" xmlns="http://www.w3.org/2000/svg"></view>
    <use xlink:href="#search__arrow--symbol" width="7" height="14" x="0" y="101" xmlns="http://www.w3.org/2000/svg"
         xmlns:xlink="http://www.w3.org/1999/xlink"/>

    <symbol id="featured__popular-s" fill="none" xmlns="http://www.w3.org/2000/svg" viewBox="0 0 12 14">
        <path d="M11.0328 6.33118C10.7295 5.64846 10.2885 5.03568 9.7375 4.53118L9.28281 4.114C9.26737 4.10022 9.24879 4.09044 9.22869 4.08552C9.2086 4.0806 9.1876 4.0807 9.16754 4.08579C9.14749 4.09088 9.12899 4.10081 9.11367 4.11472C9.09835 4.12863 9.08668 4.14609 9.07969 4.16556L8.87656 4.74837C8.75 5.114 8.51719 5.48743 8.1875 5.85462C8.16563 5.87806 8.14063 5.88431 8.12344 5.88587C8.10625 5.88743 8.07969 5.88431 8.05625 5.86243C8.03437 5.84368 8.02344 5.81556 8.025 5.78743C8.08281 4.84681 7.80156 3.78587 7.18594 2.63118C6.67656 1.67181 5.96875 0.92337 5.08437 0.401495L4.43906 0.0218077C4.35469 -0.0281923 4.24688 0.0374326 4.25156 0.13587L4.28594 0.88587C4.30937 1.39837 4.25 1.8515 4.10938 2.22806C3.9375 2.689 3.69062 3.11712 3.375 3.5015C3.15535 3.76863 2.90639 4.01024 2.63281 4.22181C1.97391 4.72832 1.43815 5.37733 1.06562 6.12025C0.694022 6.86964 0.500453 7.69471 0.5 8.53118C0.5 9.26868 0.645312 9.98275 0.932812 10.6562C1.21042 11.3046 1.61103 11.893 2.1125 12.389C2.61875 12.889 3.20625 13.2827 3.86094 13.5562C4.53906 13.8406 5.25781 13.9843 6 13.9843C6.74219 13.9843 7.46094 13.8406 8.13906 13.5577C8.79214 13.2859 9.38601 12.8895 9.8875 12.3906C10.3938 11.8906 10.7906 11.3062 11.0672 10.6577C11.3543 9.98615 11.5015 9.26312 11.5 8.53274C11.5 7.77024 11.3438 7.02962 11.0328 6.33118Z"
              fill="#EF4444"></path>
    </symbol>
    <view id="featured__popular" viewBox="0 150 12 14" xmlns="http://www.w3.org/2000/svg"></view>
    <use xlink:href="#featured__popular-s" width="12" height="14" x="0" y="150" xmlns="http://www.w3.org/2000/svg"
         xmlns:xlink="http://www.w3.org/1999/xlink"/>

    <symbol id="featured__new-s" fill="none" xmlns="http://www.w3.org/2000/svg" viewBox="0 0 12 13">
        <path d="M12 6.22126V12C11.9999 12.1812 11.9508 12.3591 11.8579 12.5147C11.765 12.6703 11.6317 12.7979 11.4723 12.8839C11.3278 12.9622 11.1657 13.0021 11.0014 12.9999H7.99782C7.86521 12.9999 7.73803 12.9473 7.64426 12.8535C7.5505 12.7597 7.49782 12.6326 7.49782 12.4999V9.49951C7.49782 9.3669 7.44514 9.23973 7.35137 9.14596C7.2576 9.05219 7.13043 8.99951 6.99782 8.99951H4.99782C4.86521 8.99951 4.73803 9.05219 4.64426 9.14596C4.5505 9.23973 4.49782 9.3669 4.49782 9.49951V12.4999C4.49782 12.6326 4.44514 12.7597 4.35137 12.8535C4.2576 12.9473 4.13043 12.9999 3.99782 12.9999H1.00013C0.858363 13.0003 0.718156 12.9704 0.588903 12.9121C0.45965 12.8539 0.344338 12.7687 0.250693 12.6623C0.0863065 12.4721 -0.00285834 12.2285 5.886e-06 11.9771V6.2212C0.000114843 6.08187 0.0292798 5.9441 0.085638 5.81669C0.141996 5.68927 0.224309 5.57501 0.327318 5.4812L5.32688 0.935385C5.51053 0.767169 5.75053 0.673851 5.99957 0.673828C6.24862 0.673805 6.48864 0.767078 6.67232 0.93526L11.6728 5.48126C11.7757 5.57509 11.858 5.68935 11.9144 5.81677C11.9707 5.94418 11.9999 6.08194 12 6.22126Z"
              fill="#1D4ED8"></path>
    </symbol>
    <view id="featured__new" viewBox="0 200 12 13" xmlns="http://www.w3.org/2000/svg"></view>
    <use xlink:href="#featured__new-s" width="12" height="13" x="0" y="200" xmlns="http://www.w3.org/2000/svg"
         xmlns:xlink="http://www.w3.org/1999/xlink"/>

    <symbol id="featured__best-s" fill="none" xmlns="http://www.w3.org/2000/svg" viewBox="0 0 14 14">
        <path d="M11.8 3.79999H1.79998V3.39999L10.6 2.69599V3.39999H11.8V2.19999C11.8 1.31999 11.0872 0.702389 10.2168 0.826389L2.18398 1.97359C1.31278 2.09839 0.599976 2.91999 0.599976 3.79999V11.8C0.599976 12.2243 0.768546 12.6313 1.0686 12.9314C1.36866 13.2314 1.77563 13.4 2.19998 13.4H11.8C12.2243 13.4 12.6313 13.2314 12.9313 12.9314C13.2314 12.6313 13.4 12.2243 13.4 11.8V5.39999C13.4 4.97564 13.2314 4.56868 12.9313 4.26862C12.6313 3.96856 12.2243 3.79999 11.8 3.79999ZM10.6 9.40479C10.4423 9.40474 10.2863 9.37364 10.1406 9.31326C9.99501 9.25289 9.86271 9.16442 9.75128 9.05292C9.63985 8.94141 9.55147 8.80905 9.4912 8.66339C9.43092 8.51773 9.39992 8.36163 9.39997 8.20399C9.40003 8.04635 9.43113 7.89027 9.4915 7.74465C9.55188 7.59903 9.64034 7.46673 9.75185 7.3553C9.86335 7.24387 9.99571 7.15549 10.1414 7.09521C10.287 7.03493 10.4431 7.00394 10.6008 7.00399C10.9191 7.0041 11.2244 7.13067 11.4495 7.35586C11.6745 7.58105 11.8009 7.88642 11.8008 8.20479C11.8007 8.52315 11.6741 8.82844 11.4489 9.05348C11.2237 9.27853 10.9183 9.40489 10.6 9.40479Z"
              fill="#047857"></path>
    </symbol>
    <view id="featured__best" viewBox="0 250 14 14" xmlns="http://www.w3.org/2000/svg"></view>
    <use xlink:href="#featured__best-s" width="14" height="14" x="0" y="250" xmlns="http://www.w3.org/2000/svg"
         xmlns:xlink="http://www.w3.org/1999/xlink"/>


    <symbol xmlns="http://www.w3.org/2000/svg" viewBox="0 0 33 32" id="tour__bath-s">
        <path d="M27.0391 15.9553H5.96092C5.13083 15.9553 4.45534 16.6308 4.45534 17.4609C4.45534 18.291 5.13083 18.9665 5.96092 18.9665H27.0391C27.8692 18.9665 28.5447 18.291 28.5447 17.4609C28.5447 16.6308 27.8692 15.9553 27.0391 15.9553Z"
              fill="#888B97"></path>
        <path d="M27.1776 17.9819C26.9056 17.9056 26.6325 18.0602 26.5573 18.3272L26.5181 18.4647H6.48281L6.44267 18.3272C6.36739 18.0602 6.09239 17.9076 5.82237 17.9819C5.55537 18.0581 5.4018 18.3362 5.47811 18.6022L6.86123 23.4441C7.2898 24.9447 8.67898 25.9926 10.2388 25.9926H22.7602C24.321 25.9926 25.7091 24.9447 26.1377 23.4441L27.5208 18.6022C27.5981 18.3362 27.4435 18.0581 27.1776 17.9819ZM10.2398 23.9851C9.57128 23.9851 8.97506 23.5364 8.79237 22.893L8.14097 20.6106C8.0647 20.3436 8.21926 20.0665 8.48523 19.9903C8.75421 19.914 9.03025 20.0695 9.10553 20.3356L9.75693 22.618C9.81918 22.8318 10.0169 22.9824 10.2397 22.9824C10.5167 22.9824 10.7416 23.2072 10.7416 23.4843C10.7416 23.7613 10.5168 23.9851 10.2398 23.9851Z"
              fill="#888B97"></path>
        <path d="M11.2034 25.0411C10.9555 24.9197 10.6554 25.017 10.5299 25.266L9.52617 27.2734C9.40271 27.5213 9.50307 27.8224 9.75102 27.9469C9.82428 27.9831 9.90059 28.0001 9.97587 28.0001C10.1596 28.0001 10.3362 27.8987 10.4245 27.7221L11.4282 25.7147C11.5517 25.4667 11.4513 25.1655 11.2034 25.0411Z"
              fill="#888B97"></path>
        <path d="M23.4738 27.2743L22.4701 25.2668C22.3457 25.0179 22.0445 24.9185 21.7966 25.042C21.5487 25.1664 21.4483 25.4676 21.5717 25.7155L22.5754 27.723C22.6638 27.8986 22.8404 28 23.0241 28C23.0994 28 23.1757 27.9829 23.249 27.9478C23.4969 27.8233 23.5973 27.5222 23.4738 27.2743Z"
              fill="#888B97"></path>
        <path d="M24.6151 4C24.1032 4 23.6214 4.19973 23.2591 4.5621L21.6662 6.15501C21.4705 6.35073 21.4705 6.66893 21.6662 6.86465C21.8619 7.06038 22.1801 7.06038 22.3758 6.86465L23.9687 5.27274C24.1403 5.10011 24.3702 5.00474 24.6201 5.00474C25.124 5.00474 25.5335 5.41426 25.5335 5.91811V16.4572C25.5335 16.7342 25.7583 16.9591 26.0354 16.9591C26.3124 16.9591 26.5372 16.7342 26.5382 16.4562V5.91713C26.5383 4.86021 25.6791 4 24.6151 4Z"
              fill="#888B97"></path>
        <path d="M22.8776 6.65681L21.8739 5.65311C21.7595 5.53868 21.5999 5.48547 21.4373 5.51257L18.928 5.92411C18.7433 5.95422 18.5917 6.08469 18.5325 6.26136C18.4733 6.43803 18.5185 6.63475 18.649 6.76823L21.6601 9.86973C21.7555 9.9691 21.887 10.0223 22.0195 10.0223C22.0666 10.0223 22.1148 10.0153 22.162 10.0012C22.3406 9.94905 22.4761 9.80151 22.5123 9.61881L23.0141 7.10952C23.0472 6.94588 22.996 6.77622 22.8776 6.65681Z"
              fill="#888B97"></path>
        <path d="M16.3525 10.0806C16.1567 9.88491 15.8385 9.88491 15.6428 10.0806L14.6391 11.0843C14.4434 11.2801 14.4434 11.5983 14.6391 11.794C14.7375 11.8913 14.8659 11.9405 14.9944 11.9405C15.1229 11.9405 15.2514 11.8914 15.3488 11.794L16.3525 10.7903C16.5482 10.5945 16.5482 10.2764 16.3525 10.0806Z"
              fill="#888B97"></path>
        <path d="M18.3599 12.088C18.1641 11.8922 17.846 11.8922 17.6502 12.088L16.6465 13.0917C16.4508 13.2874 16.4508 13.6056 16.6465 13.8013C16.7449 13.8987 16.8733 13.9479 17.0018 13.9479C17.1303 13.9479 17.2588 13.8987 17.3562 13.8013L18.3599 12.7976C18.5556 12.6019 18.5556 12.2837 18.3599 12.088Z"
              fill="#888B97"></path>
        <path d="M19.3636 9.07673C19.1679 8.881 18.8497 8.881 18.654 9.07673L17.6503 10.0804C17.4545 10.2762 17.4545 10.5944 17.6503 10.7901C17.7487 10.8874 17.8771 10.9366 18.0056 10.9366C18.1341 10.9366 18.2625 10.8875 18.3599 10.7901L19.3636 9.78637C19.5594 9.59065 19.5594 9.27245 19.3636 9.07673Z"
              fill="#888B97"></path>
    </symbol>
    <view id="tour__bath" viewBox="0 300 33 32" xmlns="http://www.w3.org/2000/svg"></view>
    <use xlink:href="#tour__bath-s" width="33" height="32" x="0" y="300" xmlns="http://www.w3.org/2000/svg"
         xmlns:xlink="http://www.w3.org/1999/xlink"/>

    <symbol xmlns="http://www.w3.org/2000/svg" viewBox="0 0 32 32" id="tour__bed-s">
        <path d="M23.8 14.7692C26.0713 14.7692 28 16.6618 28 19.0769V22.7692H26.2V24H25V22.7692H7V24H5.8V22.7692H4V19.0769C4 16.7474 5.86341 14.7692 8.2 14.7692H23.8ZM22.6 8C24.2133 8 25.6004 9.33021 25.6 11.0769L25.6004 14.017C25.0548 13.7102 24.4443 13.5385 23.8 13.5385L22.6 13.5378C22.6 12.4839 21.7586 11.6923 20.8 11.6923H17.2C16.739 11.6923 16.3185 11.87 16.0001 12.1623C15.682 11.8703 15.2613 11.6923 14.8 11.6923H11.2C10.2061 11.6923 9.40033 12.5185 9.4 13.5378L8.2 13.5385C7.55587 13.5385 6.9456 13.7101 6.4 14.0167V11.0769C6.4 9.4223 7.69394 8 9.4 8H22.6ZM14.8 12.9228C15.1256 12.9228 15.4 13.2305 15.4 13.5385L10.6 13.5378C10.6 13.1613 10.8923 12.9231 11.2 12.9231L14.8 12.9228ZM20.8 12.9272C21.1395 12.9228 21.3997 13.2225 21.4 13.5378H16.6C16.6 13.156 16.8923 12.9231 17.2 12.9231L20.8 12.9272Z"
              fill="#888B97"></path>
    </symbol>
    <view id="tour__bed" viewBox="0 350 32 32" xmlns="http://www.w3.org/2000/svg"></view>
    <use xlink:href="#tour__bed-s" width="32" height="32" x="0" y="350" xmlns="http://www.w3.org/2000/svg"
         xmlns:xlink="http://www.w3.org/1999/xlink"/>

    <symbol xmlns="http://www.w3.org/2000/svg" viewBox="0 0 32 32" id="tour__park-s">
        <path d="M27.3838 10.6286L17.357 4.37929C16.5309 3.86917 15.4665 3.87438 14.6453 4.39024L4.60814 10.6338C3.98488 11.0255 3.81267 11.8251 4.22271 12.4197C4.63329 13.0144 5.47086 13.1792 6.09466 12.7869L16.0104 6.61852L25.9142 12.7922C26.1416 12.9325 26.3959 12.9987 26.6473 12.9987C27.0913 12.9987 27.5243 12.7916 27.7829 12.4109C28.1885 11.8131 28.0092 11.0161 27.3838 10.6286Z"
              fill="#888B97"></path>
        <path d="M24.2107 18.7531C24.134 18.3031 23.7525 17.9702 23.3075 17.9702H22.796L22.6017 15.8962C22.3942 13.6781 20.5985 12 18.4248 12H13.5761C11.4019 12 9.6067 13.6787 9.39866 15.8962L9.20484 17.9702H8.69287C8.24737 17.9702 7.86632 18.3031 7.78869 18.7531L7.02759 23.1768C6.93321 23.7251 7.08442 24.2895 7.43351 24.715C7.76941 25.1249 8.26412 25.3694 8.78167 25.3876V26.1221C8.78167 27.162 9.59452 28 10.6098 28H11.1872C12.2015 28 13.0266 27.162 13.0266 26.1221V25.3996H18.9794V26.1206C18.9794 27.1609 19.7978 28 20.8121 28H21.39C22.4043 28 23.2238 27.1609 23.2238 26.1206V25.3876C23.7413 25.3694 24.233 25.127 24.5679 24.7176C24.917 24.291 25.0661 23.7298 24.9728 23.1804L24.2107 18.7531ZM10.3906 23.6933C9.53465 23.6933 8.84052 22.9822 8.84052 22.1036C8.84052 21.225 9.53465 20.5134 10.3906 20.5134C11.2471 20.5134 11.9417 21.2245 11.9417 22.1036C11.9417 22.9822 11.2471 23.6933 10.3906 23.6933ZM10.7773 17.9702L10.9564 16.057C11.0868 14.666 12.2127 13.6183 13.5761 13.6183H13.8557V14.2196C13.8557 14.7414 14.2601 15.157 14.7685 15.157H17.2324C17.7408 15.157 18.1523 14.7414 18.1523 14.2196V13.6188H18.4248C19.7882 13.6188 20.9141 14.6665 21.044 16.0575L21.2236 17.9707L10.7773 17.9702ZM21.6082 23.6933C20.7522 23.6933 20.0581 22.9822 20.0581 22.1036C20.0581 21.225 20.7522 20.5134 21.6082 20.5134C22.4647 20.5134 23.1593 21.2245 23.1593 22.1036C23.1593 22.9822 22.4647 23.6933 21.6082 23.6933Z"
              fill="#888B97"></path>
    </symbol>
    <view id="tour__park" viewBox="0 400 32 32" xmlns="http://www.w3.org/2000/svg"></view>
    <use xlink:href="#tour__park-s" width="32" height="32" x="0" y="400" xmlns="http://www.w3.org/2000/svg"
         xmlns:xlink="http://www.w3.org/1999/xlink"/>

    <symbol xmlns="http://www.w3.org/2000/svg" viewBox="0 0 16 20" id="tour__phone-s">
        <path d="M4.38439 0.479124C4.90949 0.320805 5.47298 0.347107 5.98104 0.553653C6.48911 0.760198 6.91111 1.13453 7.1768 1.61432L7.26679 1.79312L8.05999 3.55832C8.30108 4.09411 8.37934 4.68894 8.28504 5.26885C8.19074 5.84876 7.92803 6.38814 7.52959 6.81992L7.37119 6.97832L6.11839 8.14592C5.8928 8.35952 6.06199 9.18633 6.87919 10.5999C7.61239 11.8719 8.21119 12.4659 8.50399 12.4983H8.55559L8.61919 12.4863L11.0792 11.7339C11.4098 11.6325 11.7626 11.6285 12.0955 11.7224C12.4283 11.8162 12.727 12.004 12.956 12.2631L13.0664 12.4011L14.6936 14.6571C15.0129 15.0992 15.1721 15.6368 15.1451 16.1814C15.118 16.7261 14.9063 17.2453 14.5448 17.6535L14.3984 17.8047L13.7468 18.4215C13.1627 18.9746 12.4322 19.3484 11.6419 19.4984C10.8516 19.6483 10.0349 19.5682 9.28879 19.2675C6.96679 18.3315 4.85719 16.1931 2.94079 12.8739C1.02079 9.54633 0.222795 6.64592 0.579195 4.16192C0.687148 3.41091 0.996527 2.70316 1.47446 2.11388C1.9524 1.52459 2.58104 1.07578 3.2936 0.815124L3.52519 0.738324L4.38439 0.479124Z"
              fill="white"></path>
    </symbol>
    <view id="tour__phone" viewBox="0 450 16 20" xmlns="http://www.w3.org/2000/svg"></view>
    <use xlink:href="#tour__phone-s" width="16" height="20" x="0" y="450" xmlns="http://www.w3.org/2000/svg"
         xmlns:xlink="http://www.w3.org/1999/xlink"/>

    <symbol xmlns="http://www.w3.org/2000/svg" viewBox="0 0 48 48" id="tour__play-s">
        <g clip-path="url(#clip0_4_203)">
            <path d="M33 24.5L18.5 13.5H18V34.5L33 24.5Z" fill="white"></path>
            <g filter="url(#filter0_b_4_203)">
                <path d="M48 24C48 30.3652 45.4714 36.4697 40.9706 40.9706C36.4697 45.4714 30.3652 48 24 48C17.6348 48 11.5303 45.4714 7.02944 40.9706C2.52856 36.4697 0 30.3652 0 24C0 17.6348 2.52856 11.5303 7.02944 7.02944C11.5303 2.52856 17.6348 0 24 0C30.3652 0 36.4697 2.52856 40.9706 7.02944C45.4714 11.5303 48 17.6348 48 24ZM20.37 15.279C20.1457 15.1193 19.8818 15.0244 19.6072 15.0048C19.3325 14.9851 19.0578 15.0414 18.813 15.1675C18.5683 15.2936 18.3629 15.4846 18.2195 15.7197C18.0761 15.9547 18.0002 16.2247 18 16.5V31.5C18.0002 31.7753 18.0761 32.0453 18.2195 32.2803C18.3629 32.5154 18.5683 32.7064 18.813 32.8325C19.0578 32.9586 19.3325 33.0149 19.6072 32.9952C19.8818 32.9756 20.1457 32.8807 20.37 32.721L30.87 25.221C31.0644 25.0822 31.2229 24.8991 31.3323 24.6867C31.4417 24.4743 31.4987 24.2389 31.4987 24C31.4987 23.7611 31.4417 23.5257 31.3323 23.3133C31.2229 23.1009 31.0644 22.9178 30.87 22.779L20.37 15.279Z"
                      fill="white" fill-opacity="0.5"></path>
            </g>
        </g>
        <defs>
            <filter id="filter0_b_4_203" x="-5" y="-5" width="58" height="58" filterUnits="userSpaceOnUse"
                    color-interpolation-filters="sRGB">
                <feFlood flood-opacity="0" result="BackgroundImageFix"></feFlood>
                <feGaussianBlur in="BackgroundImageFix" stdDeviation="2.5"></feGaussianBlur>
                <feComposite in2="SourceAlpha" operator="in" result="effect1_backgroundBlur_4_203"></feComposite>
                <feBlend mode="normal" in="SourceGraphic" in2="effect1_backgroundBlur_4_203" result="shape"></feBlend>
            </filter>
            <clipPath id="clip0_4_203">
                <rect width="48" height="48" fill="white"></rect>
            </clipPath>
        </defs>
    </symbol>
    <view id="tour__play" viewBox="0 500 48 48" xmlns="http://www.w3.org/2000/svg"></view>
    <use xlink:href="#tour__play-s" width="48" height="48" x="0" y="500" xmlns="http://www.w3.org/2000/svg"
         xmlns:xlink="http://www.w3.org/1999/xlink"/>

    <symbol xmlns="http://www.w3.org/2000/svg" viewBox="0 0 33 32" id="tour__stairs-s">
        <path d="M27.2884 9H22.9324C22.2631 9 21.7207 9.53666 21.7207 10.1996V13.3135H18.5759C17.9064 13.3135 17.3641 13.85 17.3641 14.5129V17.6271H14.2192C13.5497 17.6271 13.0075 18.1643 13.0075 18.8265V22.0907H9.71171C9.39012 22.0907 9.08195 22.2169 8.85482 22.4416C8.6275 22.6664 8.5 22.973 8.5 23.2901L8.50039 25.7999C8.50039 26.4634 9.04297 27 9.71206 27H27.2884C27.9579 27 28.5 26.4634 28.5 25.7999V10.1995C28.5001 9.53666 27.9579 9 27.2884 9Z"
              fill="#888B97"></path>
        <path d="M21.264 5.2453C20.9425 4.92389 20.4158 4.91771 20.0863 5.23043C14.7431 10.3055 9.65982 15.2624 4.74409 20.0549C4.58768 20.2074 4.5 20.4146 4.5 20.6296V26.1877C4.5 26.6356 4.87278 27 5.33294 27C5.79264 27 6.16608 26.6357 6.16608 26.1877V20.9657C11.002 16.2503 16.0017 11.378 21.2485 6.39368C21.5778 6.08102 21.5845 5.56652 21.264 5.2453Z"
              fill="#888B97"></path>
    </symbol>
    <view id="tour__stairs" viewBox="0 550 33 32" xmlns="http://www.w3.org/2000/svg"></view>
    <use xlink:href="#tour__stairs-s" width="33" height="32" x="0" y="550" xmlns="http://www.w3.org/2000/svg"
         xmlns:xlink="http://www.w3.org/1999/xlink"/>

    <symbol fill="none" xmlns="http://www.w3.org/2000/svg" viewBox="0 0 28 28" id="review__star-s">
        <path d="M25.6048 10.7088C25.5315 10.4929 25.3965 10.3031 25.2166 10.1629C25.0366 10.0228 24.8196 9.93838 24.5922 9.92018L17.941 9.39168L15.0628 3.02052C14.9712 2.81531 14.8221 2.64103 14.6336 2.51868C14.445 2.39634 14.2251 2.33118 14.0004 2.33105C13.7756 2.33093 13.5557 2.39585 13.367 2.51799C13.1783 2.64012 13.0291 2.81425 12.9372 3.01935L10.059 9.39168L3.40784 9.92018C3.18437 9.93789 2.97074 10.0196 2.79249 10.1555C2.61424 10.2915 2.47894 10.4759 2.40275 10.6867C2.32657 10.8975 2.31274 11.1259 2.36291 11.3443C2.41309 11.5628 2.52514 11.7622 2.68568 11.9187L7.60084 16.7102L5.86251 24.2375C5.80973 24.4654 5.82664 24.7038 5.91107 24.9219C5.99549 25.14 6.14352 25.3278 6.33595 25.4607C6.52837 25.5936 6.75632 25.6657 6.99019 25.6674C7.22407 25.6692 7.45308 25.6007 7.64751 25.4707L14 21.2357L20.3525 25.4707C20.5512 25.6026 20.7856 25.6706 21.0241 25.6653C21.2626 25.6601 21.4937 25.582 21.6865 25.4414C21.8792 25.3009 22.0243 25.1047 22.1022 24.8793C22.1802 24.6538 22.1872 24.4099 22.1223 24.1803L19.9885 16.7137L25.2805 11.9514C25.627 11.6387 25.7542 11.151 25.6048 10.7088Z"
              fill="#F59E0B"></path>
    </symbol>
    <view id="review__star" viewBox="0 600 28 28" xmlns="http://www.w3.org/2000/svg"></view>
    <use xlink:href="#review__star-s" width="28" height="28" x="0" y="600" xmlns="http://www.w3.org/2000/svg"
         xmlns:xlink="http://www.w3.org/1999/xlink"/>

    <symbol fill="none" xmlns="http://www.w3.org/2000/svg" viewBox="0 0 20 20" id="articles__clock-s">
        <path d="M9.99 0C4.47 0 0 4.48 0 10C0 15.52 4.47 20 9.99 20C15.52 20 20 15.52 20 10C20 4.48 15.52 0 9.99 0ZM14 14C13.9075 14.0927 13.7976 14.1663 13.6766 14.2164C13.5557 14.2666 13.426 14.2924 13.295 14.2924C13.164 14.2924 13.0343 14.2666 12.9134 14.2164C12.7924 14.1663 12.6825 14.0927 12.59 14L9.3 10.71C9.20551 10.6174 9.13034 10.5069 9.07885 10.3851C9.02735 10.2632 9.00055 10.1323 9 10V6C9 5.45 9.45 5 10 5C10.55 5 11 5.45 11 6V9.59L14 12.59C14.39 12.98 14.39 13.61 14 14Z"
              fill="#888B97"></path>
    </symbol>
    <view id="articles__clock" viewBox="0 650 20 20" xmlns="http://www.w3.org/2000/svg"></view>
    <use xlink:href="#articles__clock-s" width="20" height="20" x="0" y="650" xmlns="http://www.w3.org/2000/svg"
         xmlns:xlink="http://www.w3.org/1999/xlink"/>

    <symbol fill="none" xmlns="http://www.w3.org/2000/svg" viewBox="0 0 20 16" id="subscriber__mail-s">
        <path d="M17 0H3C2.20435 0 1.44129 0.316071 0.87868 0.87868C0.316071 1.44129 0 2.20435 0 3V13C0 13.7956 0.316071 14.5587 0.87868 15.1213C1.44129 15.6839 2.20435 16 3 16H17C17.7956 16 18.5587 15.6839 19.1213 15.1213C19.6839 14.5587 20 13.7956 20 13V3C20 2.20435 19.6839 1.44129 19.1213 0.87868C18.5587 0.316071 17.7956 0 17 0ZM17 2L10.5 6.47C10.348 6.55777 10.1755 6.60397 10 6.60397C9.82446 6.60397 9.65202 6.55777 9.5 6.47L3 2H17Z"
              fill="#3B82F6"></path>
    </symbol>
    <view id="subscriber__mail" viewBox="0 700 20 16" xmlns="http://www.w3.org/2000/svg"></view>
    <use xlink:href="#subscriber__mail-s" width="20" height="16" x="0" y="700" xmlns="http://www.w3.org/2000/svg"
         xmlns:xlink="http://www.w3.org/1999/xlink"/>

    <!--END CSS -->

    <symbol id="featured__house" xmlns="http://www.w3.org/2000/svg" viewBox="0 0 18 19">
        <path d="M18 8.83189V17.5C17.9998 17.7719 17.9262 18.0386 17.7868 18.272C17.6475 18.5054 17.4476 18.6968 17.2084 18.8259C16.9916 18.9432 16.7485 19.0031 16.5021 18.9999H11.9967C11.7978 18.9999 11.607 18.9209 11.4664 18.7803C11.3257 18.6396 11.2467 18.4488 11.2467 18.2499V13.7493C11.2467 13.5504 11.1677 13.3596 11.0271 13.2189C10.8864 13.0783 10.6956 12.9993 10.4967 12.9993H7.49673C7.29781 12.9993 7.10705 13.0783 6.9664 13.2189C6.82574 13.3596 6.74673 13.5504 6.74673 13.7493V18.2499C6.74673 18.4488 6.66771 18.6396 6.52706 18.7803C6.3864 18.9209 6.19564 18.9999 5.99673 18.9999H1.5002C1.28754 19.0005 1.07723 18.9556 0.883354 18.8682C0.689475 18.7808 0.516507 18.653 0.37604 18.4934C0.12946 18.2082 -0.00428751 17.8427 8.829e-06 17.4657V8.8318C0.000172265 8.62281 0.0439196 8.41615 0.128457 8.22503C0.212994 8.0339 0.336463 7.86251 0.490978 7.7218L7.99032 0.903078C8.26579 0.650753 8.62579 0.510777 8.99936 0.510742C9.37293 0.510707 9.73296 0.650617 10.0085 0.90289L17.5091 7.72189C17.6636 7.86263 17.787 8.03403 17.8716 8.22515C17.9561 8.41627 17.9998 8.62292 18 8.83189Z"></path>
    </symbol>
    <symbol id="featured__villa" xmlns="http://www.w3.org/2000/svg" viewBox="0 0 18 18">
        <path d="M4 17.9999H1C0.45 17.9999 0 17.5499 0 16.9999V5.68994C0 5.26994 0.25 4.89994 0.64 4.74994L11.64 0.519938C11.7921 0.46126 11.9561 0.440637 12.118 0.459864C12.2798 0.47909 12.4345 0.537584 12.5686 0.630254C12.7027 0.722923 12.8121 0.846959 12.8873 0.991563C12.9624 1.13617 13.0012 1.29696 13 1.45994V6.99994H5C4.45 6.99994 4 7.44994 4 7.99994V17.9999ZM14 8.99994H7C6.45 8.99994 6 9.44994 6 9.99994V16.9999C6 17.5499 6.45 17.9999 7 17.9999H11V13.9999C11 13.4499 11.45 12.9999 12 12.9999C12.55 12.9999 13 13.4499 13 13.9999V17.9999H17C17.55 17.9999 18 17.5499 18 16.9999V8.99994C18 7.89994 17.1 6.99994 16 6.99994C14.9 6.99994 14 7.89994 14 8.99994Z"></path>
    </symbol>
    <symbol id="featured__apartment" xmlns="http://www.w3.org/2000/svg" viewBox="0 0 18 18">
        <path d="M14 8V2C14 0.9 13.1 0 12 0H6C4.9 0 4 0.9 4 2V4H2C0.9 4 0 4.9 0 6V16C0 17.1 0.9 18 2 18H8V14H10V18H16C17.1 18 18 17.1 18 16V10C18 8.9 17.1 8 16 8H14ZM4 16H2V14H4V16ZM4 12H2V10H4V12ZM4 8H2V6H4V8ZM8 12H6V10H8V12ZM8 8H6V6H8V8ZM8 4H6V2H8V4ZM12 12H10V10H12V12ZM12 8H10V6H12V8ZM12 4H10V2H12V4ZM16 16H14V14H16V16ZM16 12H14V10H16V12Z"></path>
    </symbol>
    <symbol fill="none" xmlns="http://www.w3.org/2000/svg" viewBox="0 0 32 32" id="footer__fb">
        <path d="M12.3186 26V16.6154H9V13.2365H12.3186V10.3505C12.3186 8.08264 14.2789 6 18.7959 6C20.6247 6 21.9771 6.1311 21.9771 6.1311L21.8705 9.28642C21.8705 9.28642 20.4913 9.27638 18.9863 9.27638C17.3574 9.27638 17.0965 9.83768 17.0965 10.7693V13.2365H22L21.7866 16.6154H17.0965V26H12.3186Z"
              fill="#3C4563"></path>
    </symbol>
    <symbol fill="none" xmlns="http://www.w3.org/2000/svg" viewBox="0 0 32 32" id="footer__instagram">
        <path d="M15.9973 12.6652C14.1611 12.6652 12.6626 14.1638 12.6626 16C12.6626 17.8362 14.1611 19.3348 15.9973 19.3348C17.8335 19.3348 19.332 17.8362 19.332 16C19.332 14.1638 17.8335 12.6652 15.9973 12.6652ZM25.9989 16C25.9989 14.6191 26.0114 13.2506 25.9338 11.8722C25.8563 10.2711 25.4911 8.85017 24.3203 7.67938C23.147 6.50609 21.7286 6.14334 20.1275 6.06579C18.7466 5.98824 17.3782 6.00074 15.9998 6.00074C14.6189 6.00074 13.2505 5.98824 11.8721 6.06579C10.271 6.14334 8.85012 6.50859 7.67935 7.67938C6.50608 8.85267 6.14334 10.2711 6.06579 11.8722C5.98824 13.2531 6.00074 14.6216 6.00074 16C6.00074 17.3784 5.98824 18.7494 6.06579 20.1278C6.14334 21.7289 6.50858 23.1498 7.67935 24.3206C8.85262 25.4939 10.271 25.8567 11.8721 25.9342C13.253 26.0118 14.6214 25.9993 15.9998 25.9993C17.3807 25.9993 18.7491 26.0118 20.1275 25.9342C21.7286 25.8567 23.1495 25.4914 24.3203 24.3206C25.4936 23.1473 25.8563 21.7289 25.9338 20.1278C26.0139 18.7494 25.9989 17.3809 25.9989 16ZM15.9973 21.131C13.1579 21.131 10.8664 18.8394 10.8664 16C10.8664 13.1606 13.1579 10.869 15.9973 10.869C18.8367 10.869 21.1282 13.1606 21.1282 16C21.1282 18.8394 18.8367 21.131 15.9973 21.131ZM21.3383 11.8572C20.6754 11.8572 20.14 11.3218 20.14 10.6589C20.14 9.99594 20.6754 9.46058 21.3383 9.46058C22.0013 9.46058 22.5366 9.99594 22.5366 10.6589C22.5368 10.8163 22.5059 10.9722 22.4458 11.1177C22.3856 11.2632 22.2974 11.3954 22.1861 11.5067C22.0748 11.618 21.9426 11.7062 21.7971 11.7664C21.6516 11.8265 21.4957 11.8574 21.3383 11.8572Z"
              fill="#3C4563"></path>
    </symbol>
    <symbol fill="none" xmlns="http://www.w3.org/2000/svg" viewBox="0 0 32 32" id="footer__twitter">
        <path d="M28 8.37575C27.1174 8.76628 26.157 9.04735 25.1676 9.15682C26.1948 8.53089 26.9639 7.54202 27.3308 6.37575C26.367 6.96388 25.3111 7.37629 24.2101 7.59469C23.7499 7.09003 23.1933 6.688 22.575 6.41364C21.9567 6.13929 21.2899 5.99849 20.6163 6.00001C17.8906 6.00001 15.6986 8.26628 15.6986 11.0473C15.6986 11.4379 15.7447 11.8284 15.8197 12.2042C11.7385 11.9852 8.09855 9.98522 5.67864 6.92309C5.23771 7.69562 5.00665 8.57524 5.00949 9.47042C5.00949 11.2219 5.87766 12.7663 7.20154 13.6746C6.42136 13.643 5.65944 13.4231 4.97777 13.0326V13.0947C4.97777 15.5473 6.66795 17.5799 8.92056 18.0473C8.49761 18.16 8.06251 18.2177 7.62553 18.2189C7.30537 18.2189 7.00252 18.1864 6.69679 18.142C7.31979 20.142 9.134 21.5947 11.2943 21.642C9.60413 23 7.48708 23.7988 5.18832 23.7988C4.77587 23.7988 4.39514 23.784 4 23.7367C6.18051 25.1716 8.7677 26 11.5539 26C20.599 26 25.5484 18.3136 25.5484 11.642C25.5484 11.4231 25.5484 11.2042 25.534 10.9852C26.4915 10.2663 27.3308 9.37575 28 8.37575Z"
              fill="#3C4563"></path>
    </symbol>
    <symbol fill="none" xmlns="http://www.w3.org/2000/svg" viewBox="0 0 36 36" id="logo">
        <g>
            <path d="M0 4C0 1.79086 1.79086 0 4 0H28C30.2091 0 32 1.79086 32 4V8C32 21.2548 21.2548 32 8 32H4C1.79086 32 0 30.2091 0 28V4Z"
                  fill="#F59E0B"></path>
            <path d="M4 8C4 5.79086 5.79086 4 8 4H32C34.2091 4 36 5.79086 36 8V12C36 25.2548 25.2548 36 12 36H8C5.79086 36 4 34.2091 4 32V8Z"
                  fill="#4BE4C9"></path>
        </g>
    </symbol>
</svg>